<svg width="400" height="300" viewBox="0 0 400 300" xmlns="http://www.w3.org/2000/svg" xmlns:xlink="http://www.w3.org/1999/xlink">
    <defs>
        <!-- Космический фон (радиальный градиент) -->
        <radialGradient id="spaceBackground" cx="50%" cy="50%" r="70%">
            <stop offset="0%" style="stop-color:#0f0c29;" />
            <stop offset="40%" style="stop-color:#302b63;" />
            <stop offset="100%" style="stop-color:#24243e;" />
        </radialGradient>

        <!-- Фильтр для эффекта свечения (для радужных лучей) -->
        <filter id="glowEffect" x="-50%" y="-50%" width="200%" height="200%">
            <feGaussianBlur stdDeviation="3" result="coloredBlur"/>
            <feMerge>
                <feMergeNode in="coloredBlur"/>
                <feMergeNode in="SourceGraphic"/>
            </feMerge>
        </filter>

        <!-- Фильтр для легкого свечения белого луча -->
        <filter id="beamGlow" x="-50%" y="-50%" width="200%" height="200%">
            <feGaussianBlur stdDeviation="2" result="coloredBlur"/>
            <feMerge>
                <feMergeNode in="coloredBlur"/>
                <feMergeNode in="SourceGraphic"/>
            </feMerge>
        </filter>
    </defs>

    <!-- 1. Космический фон -->
    <rect width="100%" height="100%" fill="url(#spaceBackground)" />

    <!-- Добавим несколько "звезд" для атмосферы -->
    <circle cx="50" cy="70" r="1.5" fill="white" opacity="0.8"/>
    <circle cx="350" cy="100" r="1" fill="white" opacity="0.7"/>
    <circle cx="100" cy="250" r="1.2" fill="white" opacity="0.9"/>
    <circle cx="280" cy="200" r="0.8" fill="white" opacity="0.6"/>
    <circle cx="200" cy="30" r="1" fill="white" opacity="0.75"/>


    <!-- Группа для лучей и ноты, чтобы легко позиционировать -->
    <g transform="translate(200, 150)"> <!-- Центрируем композицию -->

        <!-- 2. Входящий луч (из левого верхнего угла к ноте) -->
        <!-- Направляем его примерно в центр предполагаемой ноты -->
        <polygon points="-150,-120 -130,-125 0,-10 0,10 -120,-105" fill="rgba(255,255,255,0.9)" filter="url(#beamGlow)">
            <animate attributeName="opacity" values="0.7;0.9;0.7" dur="2s" repeatCount="indefinite" />
        </polygon>

        <!-- 3. Ваша нота -->
        <!-- Отрегулируйте translate и scale для вашей ноты -->
        <!-- Я предполагаю, что (0,0) текущей группы - это место, где должна быть нота -->
        <g transform="translate(-30, -20) scale(0.08, -0.08) translate(0, -3010)">
            <!-- Заполняем белым и убираем исходный fill из <g> в path -->
            <path fill="white" d="M1546 2383 c-20 -31 -27 -51 -24 -73 3 -16 1 -30 -3 -30 -9 0 -6 -20 4 -37 5 -7 4 -13 -1 -13 -6 0 -7 -14 -2 -34 4 -19 4 -39 0 -46 -4 -7 -4 -27 0 -46 5 -23 4 -34 -4 -34 -7 0 -7 -3 -1 -8 6 -4 10 -29 10 -57 -1 -38 -5 -49 -16 -47 -12 2 -12 0 1 -10 16 -14 21 -78 6 -78 -5 0 -4 -6 3 -13 8 -10 7 -17 -1 -25 -9 -9 -9 -12 2 -12 13 0 13 -2 0 -10 -8 -5 -10 -10 -5 -10 6 0 10 -44 10 -110 1 -67 -3 -110 -9 -110 -6 0 -5 -5 1 -11 6 -6 9 -18 6 -26 -3 -8 0 -19 8 -24 8 -5 9 -9 3 -9 -7 0 -9 -16 -7 -44 3 -26 0 -47 -6 -51 -8 -4 -6 -11 5 -22 10 -10 12 -19 5 -26 -5 -5 -7 -16 -4 -23 3 -8 0 -14 -7 -14 -6 0 -8 -5 -5 -10 4 -6 11 -8 16 -5 5 4 9 1 9 -4 0 -6 -5 -11 -11 -11 -8 0 -8 -4 0 -14 9 -11 9 -15 -1 -19 -10 -4 -10 -6 0 -6 6 -1 12 -8 12 -17 0 -8 -5 -12 -11 -8 -8 4 -8 1 -2 -12 5 -11 8 -26 8 -34 -1 -18 -24 -60 -25 -45 0 6 6 17 13 25 6 8 2 6 -10 -4 -18 -15 -23 -16 -23 -5 0 11 -2 11 -10 -1 -5 -8 -10 -10 -10 -5 0 6 -9 11 -20 11 -11 0 -20 -4 -20 -9 0 -5 -6 -4 -14 2 -9 8 -16 8 -20 2 -4 -5 -18 -8 -31 -5 -14 2 -25 1 -25 -4 0 -4 -10 -9 -22 -10 -44 -4 -60 -9 -66 -18 -4 -5 -20 -10 -36 -11 -15 -1 -35 -10 -43 -20 -8 -10 -12 -13 -9 -6 4 6 2 14 -4 18 -6 4 -7 11 -4 17 4 7 2 8 -5 4 -8 -5 -9 -12 -2 -20 12 -15 4 -27 -31 -45 -16 -8 -28 -18 -28 -23 0 -5 -4 -6 -10 -3 -5 3 -10 1 -10 -5 0 -6 -5 -8 -12 -4 -6 4 -8 3 -5 -3 8 -12 -48 -65 -58 -55 -4 4 -6 0 -5 -8 4 -27 0 -41 -10 -35 -6 3 -10 -1 -10 -10 0 -9 -4 -14 -9 -10 -6 3 -8 -4 -6 -15 2 -11 -1 -20 -7 -20 -5 0 -8 -7 -4 -15 3 -8 0 -15 -7 -15 -8 0 -6 -4 3 -10 11 -7 12 -10 2 -10 -8 0 -12 -6 -9 -12 2 -7 1 -20 -4 -29 -5 -9 -4 -30 0 -47 7 -24 6 -32 -7 -37 -14 -5 -14 -7 -2 -15 8 -5 18 -6 23 -3 5 3 4 -4 -2 -15 -12 -23 -15 -43 -3 -26 4 7 16 0 32 -20 14 -16 19 -26 11 -22 -8 6 -12 5 -8 0 3 -5 27 -20 54 -33 26 -13 54 -31 61 -39 7 -10 12 -11 12 -4 0 18 27 14 34 -4 5 -14 9 -14 22 -3 13 10 17 10 24 0 5 -9 10 -9 14 -3 4 7 17 7 36 2 21 -6 30 -5 31 3 0 7 4 3 9 -8 7 -16 9 -17 9 -3 1 11 8 16 21 13 11 -2 20 1 20 6 0 6 5 7 10 4 6 -4 7 -11 4 -17 -4 -6 1 -6 14 1 11 6 22 16 24 23 5 15 40 17 50 3 5 -6 8 -4 8 5 0 18 37 43 50 35 6 -4 7 2 3 12 -6 16 -5 16 10 4 15 -11 18 -10 27 13 5 14 17 26 26 26 10 0 14 3 11 6 -3 4 7 19 24 35 16 15 30 32 29 36 0 4 8 17 17 28 10 11 16 24 15 29 -2 5 5 6 14 2 14 -5 15 -4 4 9 -7 8 -8 15 -3 15 6 0 10 12 10 28 0 34 14 146 19 151 2 2 -1 13 -7 24 -8 14 -8 18 0 13 14 -9 14 0 0 25 -7 15 -7 24 2 35 6 8 7 14 2 14 -9 0 -8 91 1 116 3 7 0 15 -7 18 -9 3 -8 5 1 5 9 1 10 6 2 20 -7 14 -7 22 0 26 6 4 8 11 5 16 -3 5 -1 25 4 46 8 28 7 39 -2 45 -9 6 -9 8 1 8 6 0 12 7 12 16 0 9 -5 12 -11 8 -7 -4 -10 -1 -7 7 3 8 11 13 18 11 11 -2 11 0 0 13 -19 23 -25 89 -8 79 10 -6 9 -3 -1 9 -11 14 -11 17 0 17 9 0 10 3 4 8 -11 8 -13 108 -2 118 4 4 7 12 7 18 0 6 -5 4 -10 -4 -6 -9 -10 -10 -10 -3 0 6 4 14 9 18 10 5 8 26 -4 56 -3 10 -2 20 4 23 6 4 6 18 0 39 -11 40 -11 40 3 31 8 -5 9 -2 4 12 -14 36 -10 49 14 51 13 1 18 -2 14 -9 -4 -7 -2 -8 4 -4 7 4 18 4 25 -1 6 -4 17 -8 22 -9 30 -5 41 -10 53 -24 8 -8 11 -9 7 -3 -4 9 -1 11 9 7 9 -3 13 -10 10 -15 -3 -5 -2 -9 3 -8 4 1 19 -3 33 -9 14 -6 19 -11 13 -11 -7 -1 -13 -6 -13 -12 0 -5 4 -8 9 -5 4 3 21 -6 37 -19 16 -14 33 -25 37 -25 5 0 6 -4 3 -9 -4 -5 0 -12 6 -14 10 -4 10 -6 1 -6 -8 -1 -5 -9 7 -21 12 -12 18 -25 15 -30 -3 -5 0 -12 6 -16 8 -5 9 -3 4 7 -7 12 -5 12 6 1 12 -11 12 -14 -1 -22 -12 -8 -12 -10 -1 -10 7 0 11 -6 8 -15 -4 -8 -2 -17 4 -20 5 -4 7 -11 4 -16 -4 -5 -1 -9 5 -9 6 0 4 -10 -5 -24 -12 -18 -13 -26 -4 -32 8 -5 9 -3 4 6 -5 8 -4 11 3 7 11 -7 5 -44 -10 -64 -5 -7 -6 -18 -2 -24 4 -8 3 -9 -4 -5 -15 9 -12 -36 3 -46 6 -4 2 -8 -9 -8 -12 0 -16 -5 -12 -15 3 -10 -1 -15 -12 -16 -9 0 -12 -3 -6 -5 6 -3 9 -16 6 -29 -8 -47 17 -25 38 33 68 179 34 355 -88 463 -59 52 -144 95 -222 113 l-60 14 0 -151 c0 -84 -3 -332 -6 -552 -6 -368 -8 -404 -27 -455 -41 -110 -171 -213 -304 -240 -82 -17 -208 -9 -259 18 -233 120 -85 464 235 547 82 21 205 21 237 1 30 -20 37 -20 30 2 -3 9 -8 283 -12 608 -6 546 -5 593 10 626 10 20 16 45 14 55 -3 14 -10 8 -32 -24z"/>
            <path fill="white" d="M1601 2410 c-17 -10 -6 -30 17 -30 9 -1 30 -17 45 -38 52 -68 128 -142 231 -221 143 -111 197 -176 238 -286 19 -50 23 -79 23 -175 -1 -160 -36 -265 -118 -352 -14 -15 -28 -24 -33 -20 -4 4 -4 2 0 -5 7 -13 36 -7 36 8 0 5 7 9 16 9 15 0 53 30 37 30 -4 0 -3 4 2 8 22 16 55 72 55 94 0 19 2 20 10 8 7 -11 9 -5 6 20 -2 22 3 48 16 70 14 25 15 30 3 15 -17 -20 -17 -20 -12 0 13 50 21 91 18 104 -1 8 3 10 11 6 7 -3 5 0 -4 8 -22 17 -23 31 -3 47 8 7 15 18 15 24 0 6 -4 5 -9 -3 -7 -11 -12 -3 -21 28 -6 23 -8 45 -5 50 3 5 -1 12 -7 14 -10 4 -10 6 0 6 6 1 12 6 12 12 0 5 -4 8 -8 5 -5 -3 -16 9 -26 27 -13 24 -13 27 -2 13 9 -11 16 -15 16 -8 0 7 -9 17 -20 24 -11 7 -20 18 -20 25 0 7 -4 13 -9 13 -8 0 -24 37 -22 53 1 4 -4 6 -10 5 -6 -2 -14 3 -17 11 -3 8 0 11 7 7 7 -4 9 -1 5 8 -3 8 -12 12 -20 9 -8 -3 -25 6 -39 21 -13 14 -21 26 -17 26 4 0 -1 5 -11 11 -9 6 -15 14 -12 19 3 4 -4 6 -15 3 -14 -4 -20 -1 -18 8 2 8 -3 13 -9 11 -7 -1 -13 5 -13 13 0 8 -10 19 -22 25 -22 11 -22 10 -4 -4 11 -9 15 -16 8 -16 -7 0 -17 9 -24 20 -7 11 -18 20 -25 20 -7 0 -13 3 -13 8 0 4 -18 20 -40 36 -22 17 -40 35 -39 40 0 6 3 5 6 -1 2 -7 10 -13 16 -13 7 1 2 9 -10 19 -13 11 -23 24 -23 30 0 6 -4 11 -10 11 -5 0 -7 -8 -3 -17 5 -15 3 -14 -10 2 -8 11 -13 23 -11 26 2 4 -3 10 -12 13 -9 4 -14 13 -10 22 3 8 2 13 -3 10 -5 -3 -20 4 -33 17 -29 26 -39 29 -57 17z"/>
        </g>
        <!-- Конец вашей ноты -->

        <!-- 4. Радужные лучи (из центра ноты вправо) -->
        <!-- Координаты (dx, dy) лучей относительно центра группы (0,0) -->
        <defs>
            <linearGradient id="ray1" x1="0%" y1="0%" x2="100%" y2="0%">
                <stop offset="0%" stop-color="#FF3E96" stop-opacity="0.9"/> <!-- Ярко-розовый -->
                <stop offset="100%" stop-color="#FF3E96" stop-opacity="0"/>
            </linearGradient>
            <linearGradient id="ray2" x1="0%" y1="0%" x2="100%" y2="0%">
                <stop offset="0%" stop-color="#AB87FF" stop-opacity="0.9"/> <!-- Фиолетовый -->
                <stop offset="100%" stop-color="#AB87FF" stop-opacity="0"/>
            </linearGradient>
            <linearGradient id="ray3" x1="0%" y1="0%" x2="100%" y2="0%">
                <stop offset="0%" stop-color="#00D1FF" stop-opacity="0.9"/> <!-- Голубой -->
                <stop offset="100%" stop-color="#00D1FF" stop-opacity="0"/>
            </linearGradient>
            <linearGradient id="ray4" x1="0%" y1="0%" x2="100%" y2="0%">
                <stop offset="0%" stop-color="#00FFC8" stop-opacity="0.9"/> <!-- Бирюзовый -->
                <stop offset="100%" stop-color="#00FFC8" stop-opacity="0"/>
            </linearGradient>
            <linearGradient id="ray5" x1="0%" y1="0%" x2="100%" y2="0%">
                <stop offset="0%" stop-color="#F9F871" stop-opacity="0.9"/> <!-- Желтый -->
                <stop offset="100%" stop-color="#F9F871" stop-opacity="0"/>
            </linearGradient>
        </defs>

        <!-- filter="url(#glowEffect)" можно добавить к лучам для свечения -->
        <g filter="url(#glowEffect)">
            <path transform="rotate(-30)" d="M10,0 Q 50, -5  150,-15 L 150,15 Q 50,5 10,0 Z" fill="url(#ray1)"/>
            <path transform="rotate(-15)" d="M10,0 Q 60, -3  160,-10 L 160,10 Q 60,3  10,0 Z" fill="url(#ray2)"/>
            <path transform="rotate(0)"   d="M10,0 Q 70,  0  170,0   L 170,0  Q 70,0  10,0 Z" fill="url(#ray3)"/> <!-- Центральный потолще -->
            <path transform="rotate(15)"  d="M10,0 Q 60,  3  160,10  L 160,-10 Q 60,-3 10,0 Z" fill="url(#ray4)"/>
            <path transform="rotate(30)"  d="M10,0 Q 50,  5  150,15  L 150,-15 Q 50,-5 10,0 Z" fill="url(#ray5)"/>
        </g>
    </g>
</svg>